<svg xmlns="http://www.w3.org/2000/svg" version="1.1" xmlns:xlink="http://www.w3.org/1999/xlink" xmlns:svgjs="http://svgjs.com/svgjs" width="512" height="512" x="0" y="0" viewBox="0 0 52 52" style="enable-background:new 0 0 512 512" xml:space="preserve" class=""><g><path fill="#312e4b" d="M34.8 14.2h-3.2v-1h3.2c1.1 0 2-.9 2-2s-.9-2-2-2h-3.2v-1h3.2c1.7 0 3 1.4 3 3 .1 1.6-1.3 3-3 3z" data-original="#312e4b" class=""></path><path fill="#5b5e8b" d="M33.2 14.7v-2c0-.4-.3-.6-.6-.6h-15c-.4 0-.6.3-.6.6v2c0 .4.3.6.6.6h15c.3 0 .6-.3.6-.6zM33.2 9.6v-2c0-.4-.3-.6-.6-.6h-15c-.4 0-.6.3-.6.6v2c0 .4.3.6.6.6h15c.3 0 .6-.2.6-.6z" data-original="#5b5e8b" class=""></path><path fill="#312e4b" d="M31.9 10.2V12h-10c-.4 0-.6.3-.6.6v2c0 .4.3.6.6.6h-4.4c-.4 0-.6-.3-.6-.6v-2c0-.4.3-.6.6-.6h.6v-1.8h-.6c-.4 0-.6-.3-.6-.6v-2c0-.4.3-.6.6-.6h4.4c-.4 0-.6.3-.6.6v2c0 .4.3.6.6.6zM26.9 3.9V7h-3.7V3.9C23.2 2.8 24 2 25 2s1.9.8 1.9 1.9z" data-original="#312e4b" class=""></path><path fill="#5b5e8b" d="M27.7 4.2v1.2c0 .2-.2.3-.3.3h-4.7c-.2 0-.3-.2-.3-.3V4.2c0-.2.2-.3.3-.3h4.7c.2-.1.3.1.3.3z" data-original="#5b5e8b" class=""></path><path fill="#312e4b" d="M24.5 5.7h-1.8c-.2 0-.3-.2-.3-.3V4.2c0-.2.2-.3.3-.3h1.8c-.2 0-.3.1-.3.3v1.2c0 .1.1.3.3.3z" data-original="#312e4b" class=""></path><path fill="#65b9ff" d="M35.9 22.2v22.7c0 2.8-2.3 5-5 5H19.2c-2.8 0-5-2.3-5-5V22.2c0-2.8 2.3-5 5-5h11.7c2.7 0 5 2.3 5 5z" data-original="#65b9ff" class=""></path><path fill="#3e7fff" d="M18.6 22.2v22.7c0 2.8 2.3 5 5 5h-4.4c-2.8 0-5-2.3-5-5V22.2c0-2.5 1.8-4.6 4.2-5v-2h13.3v2.3h-8.3c-2.4 0-4.5 1.7-4.8 4.1z" data-original="#3e7fff"></path><path fill="#deddff" d="M28.4 35.3c0 1.9-1.5 3.4-3.4 3.4s-3.4-1.5-3.4-3.4c0-1.3 1.7-4.6 2.7-6.4.3-.6 1.1-.6 1.4 0 1 1.8 2.7 5.1 2.7 6.4z" data-original="#deddff" class=""></path><path fill="#c6c6f7" d="M27.5 37.6c-.6.7-1.5 1.1-2.5 1.1-1.9 0-3.4-1.5-3.4-3.4 0-1.3 1.7-4.6 2.7-6.4.3-.5 1.1-.6 1.4 0-.9 1-1.5 2.3-1.5 3.8 0 2.2 1.3 4.1 3.3 4.9z" data-original="#c6c6f7" class=""></path></g></svg>