<svg xmlns="http://www.w3.org/2000/svg" version="1.1" xmlns:xlink="http://www.w3.org/1999/xlink" xmlns:svgjs="http://svgjs.com/svgjs" width="512" height="512" x="0" y="0" viewBox="0 0 512 512" style="enable-background:new 0 0 512 512" xml:space="preserve"><g><path fill="#d0f0fc" d="M337.73 143.74a34.133 34.133 0 0 0 3.604-15.265v-16.942a17.07 17.07 0 0 0-7.6-14.201l-39.8-26.533a8.534 8.534 0 0 1-3.8-7.1V25.6h-68.267v38.1a8.534 8.534 0 0 1-3.8 7.1l-39.8 26.533a17.067 17.067 0 0 0-7.6 14.201v16.942a34.133 34.133 0 0 0 3.604 15.265l4.93 9.86V256l-4.93 9.86a34.133 34.133 0 0 0-3.604 15.265v1.283l3.563 7.612-3.293 7.841c.693 7.864 2.834 15.547 6.379 22.637.57 1.14 1.09 2.299 1.588 3.465l5.07 7.699-.581 8.646a62.964 62.964 0 0 1-1.308 23.627l-2.086 8.343 1.113 7.714-4.876 7.339-3.529 14.117a68.25 68.25 0 0 0-2.038 16.557v.939l2.627 7.836-2.627 8.208v35.153l3.948 9.263-3.059 6.189C175.058 500.721 188.607 512 204.8 512h102.4c16.193 0 29.742-11.279 33.244-26.407l-4.38-7.726 5.269-7.726v-35.153l-3.673-8.428 3.673-7.616v-.94a68.3 68.3 0 0 0-2.038-16.557l-3.529-14.117-6.032-7.724 2.269-7.328-2.086-8.344a62.96 62.96 0 0 1-1.309-23.626l-.415-8.592 4.904-7.752a63.554 63.554 0 0 1 1.588-3.467c3.545-7.09 5.686-14.774 6.379-22.637l-2.412-8.915 2.682-6.538v-1.283a34.133 34.133 0 0 0-3.604-15.265L332.8 256V153.6z" data-original="#d0f0fc"></path><path fill="#9bd8f9" d="m340.444 485.593-4.38-7.726 5.269-7.726v-35.153l-3.673-8.428 3.673-7.616v-.94c0-5.581-.685-11.142-2.038-16.557l-3.529-14.117-6.032-7.724 2.269-7.328-2.086-8.344a62.96 62.96 0 0 1-1.309-23.626l-.415-8.592 4.904-7.752a63.554 63.554 0 0 1 1.588-3.467c3.545-7.09 5.686-14.774 6.379-22.637l-2.412-8.915 2.682-6.538v-1.283a34.133 34.133 0 0 0-3.604-15.265L332.8 256V153.6l4.93-9.86a34.133 34.133 0 0 0 3.604-15.265v-16.942a17.07 17.07 0 0 0-7.6-14.201l-39.8-26.533a8.534 8.534 0 0 1-3.8-7.1V25.6H266.44v38.1a8.534 8.534 0 0 0 3.8 7.1l39.8 26.533a17.067 17.067 0 0 1 7.6 14.201v16.942a34.133 34.133 0 0 1-3.604 15.265l-4.93 9.86V256l4.93 9.86a34.133 34.133 0 0 1 3.604 15.265v11.209a62.974 62.974 0 0 1-6.648 28.163 62.975 62.975 0 0 0-4.768 43.437l9.378 37.513a68.257 68.257 0 0 1 2.038 16.557v59.863c0 18.851-15.282 34.133-34.133 34.133H307.2c16.193 0 29.742-11.279 33.244-26.407z" data-original="#9bd8f9"></path><path fill="#edf8fc" d="M290.717 0h-69.434C212.18 0 204.8 7.38 204.8 16.483v26.476a8.242 8.242 0 0 0 8.241 8.242h18.166l7.726-2.153 7.726 2.153h18.68l7.859-2.153 7.594 2.153h18.166a8.241 8.241 0 0 0 8.241-8.242V16.483C307.2 7.38 299.82 0 290.717 0z" data-original="#edf8fc"></path><path fill="#73c3f9" d="M341.333 161.842a8.242 8.242 0 0 0-8.241-8.242H178.908a8.242 8.242 0 0 0-8.241 8.242v25.892l17.067 17.067-17.067 17.067v25.892a8.24 8.24 0 0 0 8.241 8.241h131.487l5.22-1.018L332.798 256h.294a8.24 8.24 0 0 0 8.241-8.241v-25.892L329.486 204.8l11.847-17.067z" data-original="#73c3f9"></path><circle cx="256" cy="204.8" r="17.067" fill="#ffffff" transform="rotate(-45 255.982 204.862)" data-original="#ffffff"></circle><path fill="#d0f0fc" d="M290.717 0h-23.694c9.103 0 16.483 7.38 16.483 16.483v26.476a8.242 8.242 0 0 1-8.241 8.242h23.694a8.241 8.241 0 0 0 8.241-8.242V16.483C307.2 7.38 299.82 0 290.717 0zM246.66 51.2V34.133a7.726 7.726 0 1 0-15.452 0V51.2z" data-original="#d0f0fc"></path><path fill="#d0f0fc" d="M280.793 51.2V34.133a7.726 7.726 0 1 0-15.452 0V51.2z" data-original="#d0f0fc"></path><path fill="#1e9ef4" d="M341.333 187.733v-25.892a8.24 8.24 0 0 0-8.241-8.241h-23.694a8.24 8.24 0 0 1 8.241 8.241v85.917a8.24 8.24 0 0 1-8.241 8.241h23.694a8.24 8.24 0 0 0 8.241-8.241v-25.892L329.486 204.8z" data-original="#1e9ef4"></path><path fill="#edf8fc" d="M170.667 187.733h17.067c9.426 0 17.067 7.641 17.067 17.067s-7.641 17.067-17.067 17.067h-17.067zM341.333 221.867h-17.067c-9.426 0-17.067-7.641-17.067-17.067s7.641-17.067 17.067-17.067h17.067z" data-original="#edf8fc"></path><path fill="#d0f0fc" d="M317.639 189.069v31.462a17.023 17.023 0 0 0 6.628 1.335h17.067v-34.133h-17.067c-2.351 0-4.59.476-6.628 1.336z" data-original="#d0f0fc"></path><g fill="#edf8fc"><path d="M170.667 282.407v9.927c0 1.85.108 3.691.27 5.526h170.128c.162-1.835.269-3.676.269-5.526v-9.927zM328.608 340.308a62.934 62.934 0 0 1 4.489-16.345 7.692 7.692 0 0 0-5.467.093l-19.156 7.662a26.3 26.3 0 0 1-19.615 0l-17.313-6.925a41.683 41.683 0 0 0-31.092 0l-17.313 6.925a26.3 26.3 0 0 1-19.615 0l-19.155-7.662a7.686 7.686 0 0 0-5.469-.094 62.934 62.934 0 0 1 4.489 16.345l14.396 5.758c10.024 4.01 21.067 4.011 31.091 0l17.313-6.925a26.307 26.307 0 0 1 19.616 0l17.313 6.925a41.817 41.817 0 0 0 15.546 3.008 41.831 41.831 0 0 0 15.545-3.007zM335.766 387.33l-3.763-15.053a7.883 7.883 0 0 0-.998.314l-22.531 9.012a26.3 26.3 0 0 1-19.615 0l-17.313-6.925a41.683 41.683 0 0 0-31.092 0l-17.313 6.925a26.3 26.3 0 0 1-19.615 0l-22.531-9.012a7.875 7.875 0 0 0-.997-.315l-3.763 15.053 21.554 8.62a41.676 41.676 0 0 0 31.091 0l17.313-6.925a26.307 26.307 0 0 1 19.616 0l17.313 6.925a41.812 41.812 0 0 0 15.545 3.008 41.81 41.81 0 0 0 15.546-3.008zM341.333 434.988v-16.044a7.7 7.7 0 0 0-2.87.549l-29.99 11.996a26.3 26.3 0 0 1-19.615 0l-17.313-6.926c-10.024-4.009-21.068-4.01-31.092.001l-17.313 6.925a26.3 26.3 0 0 1-19.615 0l-29.99-11.996a7.698 7.698 0 0 0-2.87-.55v16.044l27.121 10.848c10.024 4.01 21.067 4.011 31.091 0l17.313-6.925a26.307 26.307 0 0 1 19.616 0l17.313 6.925c5.012 2.005 10.279 3.008 15.546 3.008s10.533-1.003 15.545-3.008zM340.444 485.593c.575-2.484.889-5.068.889-7.726v-7.726H170.667v7.726a34.2 34.2 0 0 0 .889 7.726z" fill="#edf8fc" data-original="#edf8fc"></path></g></g></svg>