<svg xmlns="http://www.w3.org/2000/svg" version="1.1" xmlns:xlink="http://www.w3.org/1999/xlink" xmlns:svgjs="http://svgjs.com/svgjs" width="512" height="512" x="0" y="0" viewBox="0 0 48 48" style="enable-background:new 0 0 512 512" xml:space="preserve" class="hovered-paths"><g><path d="M17.1 34.2c.1.8.2 1.5.2 2.3h13.4c0-.8.1-1.6.2-2.3zM17.3 38.5V42c0 .6.4 1 1 1h.3c.5 2.5 2.8 4.5 5.4 4.5 2.7 0 4.9-1.9 5.4-4.5h.3c.6 0 1-.4 1-1v-3.5zM23.2.5c-7.1.4-13 6-13.8 13.1-.4 4 .8 7.9 3.3 10.9 1.9 2.3 3.3 4.9 4 7.6h14.6c.7-2.7 2.1-5.4 4-7.7 2.2-2.6 3.4-5.9 3.4-9.3 0-8.3-7.1-15-15.5-14.6z" fill="#8cd7fe" data-original="#000000" class="hovered-path"></path></g></svg>