<svg xmlns="http://www.w3.org/2000/svg" version="1.1" xmlns:xlink="http://www.w3.org/1999/xlink"
  xmlns:svgjs="http://svgjs.com/svgjs" width="512" height="512" x="0" y="0" viewBox="0 0 24 24"
  style="enable-background:new 0 0 512 512" xml:space="preserve"><g><path d="M12 22.75a8.857 8.857 0 0 1-8.847-8.85C3.125 8.178 8.583 3.4 10.93 1.612a1.761 1.761 0 0 1 2.138 0c2.349 1.816 7.807 6.649 7.779 12.3A8.854 8.854 0 0 1 12 22.75zm0-20a.269.269 0 0 0-.161.056C10.147 4.094 4.627 8.7 4.653 13.9a7.347 7.347 0 0 0 14.694.009c.026-5.122-5.5-9.795-7.2-11.1A.246.246 0 0 0 12 2.75z" data-name="1" fill="#000000" data-original="#ffffff"></path></g></svg>