<svg xmlns="http://www.w3.org/2000/svg" version="1.1" xmlns:xlink="http://www.w3.org/1999/xlink" xmlns:svgjs="http://svgjs.com/svgjs" width="512" height="512" x="0" y="0" viewBox="0 0 512 511" style="enable-background:new 0 0 512 512" xml:space="preserve" class=""><g><path fill="#8cd7fe" d="M511.996 153.195a151.354 151.354 0 0 1-3.18 29.993c-3.257 15.796-9.035 31.484-17.343 46.667-21.735 39.73-55.446 71.454-88.047 102.137a2167.875 2167.875 0 0 0-16.567 15.684c-20.226 19.426-40.71 38.152-60.515 56.258-19.664 17.984-40 36.57-59.953 55.734L256 469.637l-10.387-9.969c-19.953-19.152-40.289-37.75-59.953-55.727-19.805-18.113-40.289-36.84-60.515-56.265a2167.875 2167.875 0 0 0-16.567-15.684c-32.601-30.683-66.312-62.406-88.047-102.137-7.078-12.933-12.328-26.242-15.734-39.667-2.543-9.958-4.07-19.985-4.59-29.993-1.582-30.054 5.918-59.886 22.453-86.898C59.203 13.633 110.117.785 146.398.504c30.973-.238 61.606 8.66 88.618 25.695L256 39.344l21.027-13.164C303.66 9.37 333.863.504 364.426.504h1.18c36.28.281 87.195 13.129 123.738 72.793 15.246 24.914 22.812 52.226 22.652 79.898zm0 0" data-original="#ff3636" class=""></path><path fill="#f0e7df" d="M511.996 153.195a151.354 151.354 0 0 1-3.18 29.993H289.184L256 283.964l-21.781 66.16-78.614-217.672-28.203 57.734H4.797c-2.543-9.957-4.07-19.984-4.59-29.992h108.461l51.098-104.554 73.14 202.55L256 188.047l11.48-34.852zm0 0" data-original="#f0e7df" class=""></path><path fill="#85d5ff" d="M511.996 153.195a151.354 151.354 0 0 1-3.18 29.993c-3.257 15.796-9.035 31.484-17.343 46.667-21.735 39.73-55.446 71.454-88.047 102.137a2167.875 2167.875 0 0 0-16.567 15.684c-20.226 19.426-40.71 38.152-60.515 56.258-19.664 17.984-40 36.57-59.953 55.734L256 469.637V39.344l21.027-13.164C303.66 9.37 333.863.504 364.426.504h1.18c36.28.281 87.195 13.129 123.738 72.793 15.246 24.914 22.812 52.226 22.652 79.898zm0 0" data-original="#ea0016" class=""></path><path fill="#dfcdbd" d="M511.996 153.195a151.354 151.354 0 0 1-3.18 29.993H289.184L256 283.964v-95.918l11.48-34.852zm0 0" data-original="#dfcdbd"></path></g></svg>