<svg xmlns="http://www.w3.org/2000/svg" version="1.1" xmlns:xlink="http://www.w3.org/1999/xlink" xmlns:svgjs="http://svgjs.com/svgjs" width="512" height="512" x="0" y="0" viewBox="0 0 32 32" style="enable-background:new 0 0 512 512" xml:space="preserve" class=""><g><path fill="#e4edf2" d="m9.55 10.97-5.17 5.16A8.07 8.07 0 0 0 2 21.88c0 2.16.84 4.2 2.38 5.74S7.96 30 10.12 30c2.17 0 4.21-.84 5.75-2.38l5.17-5.16z" data-original="#e4edf2"></path><path fill="#8cd7fe" d="M27.62 4.38A8.064 8.064 0 0 0 21.88 2c-2.17 0-4.21.84-5.75 2.38l-6.58 6.59 11.49 11.49 6.58-6.59A8.112 8.112 0 0 0 30 10.12c0-2.16-.85-4.2-2.38-5.74zm-2.51 1.925a1 1 0 0 1-1.414.005 2.583 2.583 0 0 0-3.631 0 1 1 0 1 1-1.41-1.419 4.588 4.588 0 0 1 6.449 0 .999.999 0 0 1 .006 1.414z" data-original="#55c1fa" class=""></path><path fill="#ffffff" d="M18.655 4.891a1 1 0 1 0 1.41 1.419c1-.993 2.629-.994 3.631 0a1 1 0 1 0 1.408-1.42 4.588 4.588 0 0 0-6.449.001z" data-original="#ffffff" class=""></path></g></svg>