<svg xmlns="http://www.w3.org/2000/svg" version="1.1" xmlns:xlink="http://www.w3.org/1999/xlink" xmlns:svgjs="http://svgjs.com/svgjs" width="512" height="512" x="0" y="0" viewBox="0 0 24 24" style="enable-background:new 0 0 512 512" xml:space="preserve" class=""><g><g fill="#3b82f6"><path d="M13.445 10.088c-.47.314-.914.628-1.34.93-3.148 2.227-4.729 3.347-9.44-.845a1 1 0 0 0-1.33 1.494c2.762 2.457 4.842 3.331 6.605 3.331 2.005 0 3.601-1.13 5.322-2.349.41-.29.839-.594 1.293-.897 3.254-2.172 6.589 1.06 6.74 1.21a1 1 0 0 0 1.412-1.415c-1.583-1.586-5.56-3.93-9.261-1.46z" fill="#8cd7fe" data-original="#3b82f6" class=""></path><path d="M19.111 17.26c-1.713-.94-2.686-1.121-3.72-.68-.896.379-1.787.863-2.648 1.331-1.849 1.006-3.834 2.085-5.974 2.085-1.726.001-3.553-.703-5.49-2.718a1 1 0 0 1 1.442-1.386c3.276 3.41 5.706 2.091 9.067.262.902-.491 1.836-.998 2.821-1.417 2.014-.854 3.818-.134 5.465.772a.998.998 0 1 1-.963 1.752zM1.307 5.514a1 1 0 0 0-.028 1.414c1.942 2.02 3.613 2.721 5.13 2.721 1.758 0 3.31-.945 4.833-1.874.897-.546 1.823-1.11 2.853-1.548 1.034-.437 2.006-.26 3.72.683a1 1 0 0 0 .963-1.754c-1.65-.904-3.45-1.622-5.465-.77-1.164.495-2.199 1.125-3.112 1.681-2.838 1.73-4.4 2.679-7.48-.526a1 1 0 0 0-1.414-.027z" opacity=".3" fill="#8cd7fe" data-original="#3b82f6" class=""></path></g></g></svg>